<svg width="1024" height="1024" viewBox="0 0 1024 1024" fill="none" xmlns="http://www.w3.org/2000/svg">
  <defs>
    <radialGradient id="bgGlow" cx="50%" cy="46%" r="64%">
      <stop offset="0%" stop-color="#17172A"/>
      <stop offset="42%" stop-color="#0A0A14"/>
      <stop offset="100%" stop-color="#030307"/>
    </radialGradient>
    <radialGradient id="coreGlow" cx="50%" cy="50%" r="50%">
      <stop offset="0%" stop-color="#E9FBFF"/>
      <stop offset="35%" stop-color="#00AEEF"/>
      <stop offset="72%" stop-color="#004B66"/>
      <stop offset="100%" stop-color="#00161F" stop-opacity="0"/>
    </radialGradient>
    <linearGradient id="gold" x1="278" y1="240" x2="746" y2="784" gradientUnits="userSpaceOnUse">
      <stop offset="0%" stop-color="#FFE9A6"/>
      <stop offset="22%" stop-color="#C8960C"/>
      <stop offset="55%" stop-color="#F4C449"/>
      <stop offset="100%" stop-color="#6A4700"/>
    </linearGradient>
    <linearGradient id="goldDark" x1="512" y1="276" x2="512" y2="790" gradientUnits="userSpaceOnUse">
      <stop offset="0%" stop-color="#6D4B08"/>
      <stop offset="100%" stop-color="#1E1400"/>
    </linearGradient>
    <filter id="softGold" x="150" y="170" width="724" height="704" filterUnits="userSpaceOnUse">
      <feGaussianBlur stdDeviation="18"/>
    </filter>
    <filter id="blueAura" x="300" y="300" width="424" height="424" filterUnits="userSpaceOnUse">
      <feGaussianBlur stdDeviation="34"/>
    </filter>
  </defs>

  <rect width="1024" height="1024" rx="226" fill="url(#bgGlow)"/>
  <rect x="30" y="30" width="964" height="964" rx="202" stroke="#C8960C" stroke-opacity="0.24" stroke-width="3"/>
  <rect x="58" y="58" width="908" height="908" rx="180" stroke="#00AEEF" stroke-opacity="0.12" stroke-width="2"/>

  <circle cx="512" cy="512" r="182" fill="#00AEEF" opacity="0.34" filter="url(#blueAura)"/>
  <circle cx="512" cy="512" r="96" fill="url(#coreGlow)" opacity="0.95"/>
  <circle cx="512" cy="512" r="112" stroke="#00AEEF" stroke-opacity="0.45" stroke-width="4"/>
  <circle cx="512" cy="512" r="138" stroke="#00AEEF" stroke-opacity="0.14" stroke-width="2"/>

  <path d="M236 252L396 252L512 606L628 252L788 252L566 796L458 796L236 252Z" fill="#C8960C" opacity="0.35" filter="url(#softGold)"/>
  <path d="M236 252L396 252L512 606L628 252L788 252L566 796L458 796L236 252Z" fill="url(#goldDark)"/>
  <path d="M291 302H371L512 722L653 302H733L548 756H476L291 302Z" fill="url(#gold)"/>
  <path d="M371 302L512 722L653 302H733L548 756H512V606L396 252L371 302Z" fill="#FFFFFF" opacity="0.08"/>
  <path d="M291 302H371L512 722L653 302H733" stroke="#FFE9A6" stroke-opacity="0.52" stroke-width="10" stroke-linecap="round" stroke-linejoin="round"/>

  <path d="M342 676H448L512 818L576 676H682L568 846H456L342 676Z" fill="#05050A" opacity="0.72"/>
  <path d="M448 676L512 818L576 676" stroke="#00AEEF" stroke-opacity="0.42" stroke-width="6" stroke-linecap="round" stroke-linejoin="round"/>

  <path d="M216 512H306" stroke="#C8960C" stroke-opacity="0.32" stroke-width="3" stroke-linecap="round"/>
  <path d="M718 512H808" stroke="#C8960C" stroke-opacity="0.32" stroke-width="3" stroke-linecap="round"/>
  <path d="M512 184V266" stroke="#00AEEF" stroke-opacity="0.22" stroke-width="3" stroke-linecap="round"/>
  <path d="M512 758V840" stroke="#00AEEF" stroke-opacity="0.22" stroke-width="3" stroke-linecap="round"/>
</svg>
